<svg version="1.1" id="Layer_1" xmlns="http://www.w3.org/2000/svg" xmlns:xlink="http://www.w3.org/1999/xlink" x="0px" y="0px"
	 width="100%" viewBox="0 0 536 468" enable-background="new 0 0 536 468" xml:space="preserve">
<path fill="#010101" opacity="1.000000" stroke="none" 
	d="
M1.000000,158.000000 
	C1.000000,105.346313 1.000000,53.192631 1.000000,1.019472 
	C179.609238,1.019472 358.218475,1.019472 536.913818,1.019472 
	C536.913818,156.903702 536.913818,312.807465 536.913818,468.855591 
	C358.333405,468.855591 179.666718,468.855591 1.000000,468.855591 
	C1.000000,365.448212 1.000000,261.974091 1.000000,158.000000 
M187.018723,51.825314 
	C198.663879,63.160007 209.312653,75.324623 218.178665,88.995216 
	C219.591309,91.173393 221.318771,93.147392 222.835968,95.970093 
	C228.936295,109.647942 235.036621,123.325798 241.035553,137.748383 
	C241.657288,138.918503 242.279037,140.088623 242.748642,142.005554 
	C242.908768,143.003830 243.068893,144.002090 243.135666,145.787506 
	C245.110031,157.476303 248.471970,169.127289 248.791550,180.861160 
	C249.656403,212.616013 249.216919,244.406113 249.342117,276.182037 
	C249.349731,278.113312 249.769745,280.042938 249.982437,282.659698 
	C249.989944,283.117157 249.997452,283.574585 249.453156,284.652405 
	C249.453156,319.791138 249.453156,354.929840 249.453156,391.141144 
	C262.535614,383.713318 274.538116,376.948303 286.492432,370.099152 
	C302.328339,361.026001 318.163818,351.950836 333.922913,342.745514 
	C340.341736,338.996155 346.559662,334.902985 353.744415,330.912720 
	C354.153687,329.820435 354.920166,328.728271 354.920532,327.635803 
	C354.933380,290.096863 354.873749,252.557922 354.999451,214.109848 
	C354.951538,210.409790 354.903656,206.709732 355.014465,202.082306 
	C355.873993,186.646545 353.714630,171.477051 350.728302,156.415710 
	C349.954895,152.515076 348.238892,148.801315 347.038055,144.322891 
	C346.947754,143.883011 346.857452,143.443146 346.841705,142.327454 
	C346.232300,141.218109 345.622894,140.108780 345.103302,138.245193 
	C340.410095,127.835075 336.029236,117.267418 330.891510,107.081520 
	C328.337036,102.017189 324.394043,97.653236 321.047729,92.230392 
	C316.970703,87.073807 313.171143,81.665138 308.761292,76.810905 
	C298.217560,65.204643 286.592102,54.821331 272.411926,46.531776 
	C248.230240,30.532936 221.312302,22.299105 192.756378,19.383814 
	C182.702240,18.357380 172.444962,18.954117 162.300232,19.335978 
	C157.191101,19.528294 152.126297,20.897633 146.055267,21.897079 
	C148.094849,23.340950 149.333893,24.249929 150.604614,25.112204 
	C156.315887,28.987688 162.122604,32.729317 167.730560,36.748505 
	C174.231155,41.407425 180.559967,46.306004 187.018723,51.825314 
M183.127975,77.007538 
	C182.853500,76.296249 182.763397,75.409210 182.277481,74.899483 
	C171.287155,63.370377 159.145584,53.289547 145.555923,44.886387 
	C121.707420,30.139692 95.641609,21.752455 67.950287,19.490662 
	C52.734123,18.247828 37.277016,19.954880 21.928541,20.331894 
	C21.780138,20.923693 21.631733,21.515490 21.483328,22.107288 
	C22.491062,22.992502 23.377266,24.098404 24.524549,24.730202 
	C45.548611,36.307915 63.764694,51.266079 79.097847,69.744286 
	C82.934586,74.367996 86.929543,78.860413 90.693474,84.135986 
	C90.858170,84.776077 90.854294,85.536194 91.212151,86.038742 
	C100.769188,99.460121 108.212494,113.934731 113.320137,129.623322 
	C114.168427,132.228943 115.727959,134.602982 116.862877,137.915268 
	C118.163887,142.889206 119.950867,147.794159 120.668839,152.850876 
	C122.376511,164.878128 123.793114,176.957581 124.896393,189.055252 
	C125.468758,195.331406 125.125267,201.691071 125.041893,208.936447 
	C125.041893,245.451340 125.041893,281.966248 125.041893,319.245270 
	C140.298370,310.365875 154.588409,301.976318 168.949219,293.709778 
	C185.811356,284.003387 202.865646,274.623627 219.587738,264.683563 
	C231.455261,257.629120 229.423599,261.086487 229.295746,247.097443 
	C229.310760,240.474243 229.368027,233.850830 229.331589,227.227905 
	C229.265167,215.153366 229.143250,203.079132 229.245605,190.084473 
	C230.085815,176.833557 227.947708,163.888290 224.764130,151.132599 
	C223.387589,145.617126 220.926895,140.372223 219.037979,134.218002 
	C218.985138,133.725845 219.038925,133.191681 218.863968,132.747635 
	C213.104797,118.131096 205.634155,104.390480 196.473389,91.683098 
	C192.748566,86.516190 187.597519,82.377434 183.127975,77.007538 
M432.918610,76.276352 
	C431.211304,74.911537 429.297363,73.737816 427.829865,72.151192 
	C417.552094,61.038860 406.117462,51.363598 393.055420,43.660015 
	C379.484070,35.656082 365.081268,29.447002 349.941986,25.284843 
	C340.227539,22.614107 330.211273,20.518051 320.197601,19.577700 
	C303.932037,18.050257 287.600586,18.527752 271.024475,21.846333 
	C272.241180,23.009712 273.070160,24.212172 274.214569,24.835592 
	C293.692566,35.446331 310.336182,49.541027 325.080353,65.992783 
	C328.993744,70.359367 332.917908,74.716278 336.879608,79.815605 
	C340.437714,85.559196 344.427399,91.084991 347.459747,97.093887 
	C352.961212,107.995537 358.057983,119.111832 362.990997,130.285431 
	C365.375732,135.687012 367.005798,141.421783 368.852997,147.870468 
	C370.162781,154.392731 372.049591,160.861786 372.656738,167.448807 
	C373.763000,179.451050 374.175262,191.520187 374.744965,203.567657 
	C375.003723,209.039734 374.947113,214.526703 374.831207,220.923752 
	C374.900238,244.617508 374.969269,268.311249 374.794769,292.914246 
	C374.865295,315.946899 374.935852,338.979553 374.793365,362.926910 
	C374.793365,396.116455 374.793365,429.306000 374.793365,462.766144 
	C380.633728,459.618317 385.672974,457.049896 390.570557,454.235016 
	C405.234955,445.806641 419.836090,437.268280 434.476746,428.798523 
	C448.444489,420.718079 462.467987,412.732513 476.349426,404.506805 
	C477.682587,403.716827 478.933990,401.529236 478.950897,399.976593 
	C479.088715,387.321045 478.923615,374.662170 479.020996,361.079559 
	C478.968475,337.721313 478.915985,314.363037 479.012177,290.077240 
	C478.961151,266.386566 478.910126,242.695862 479.016266,218.078857 
	C478.329651,200.222778 477.895508,182.351181 476.799835,164.520248 
	C476.478546,159.291138 474.278900,154.177444 473.042938,148.214767 
	C470.766968,141.387039 468.920227,134.377701 466.124420,127.769928 
	C460.541931,114.576157 453.522949,102.107491 444.847748,90.675697 
	C441.209106,85.880898 436.963318,81.546860 432.918610,76.276352 
z"/>
<path fill="#EDE269" opacity="1.000000" stroke="none" 
	d="
M375.033569,220.006927 
	C374.947113,214.526703 375.003723,209.039734 374.744965,203.567657 
	C374.175262,191.520187 373.763000,179.451050 372.656738,167.448807 
	C372.049591,160.861786 370.162781,154.392731 369.343872,147.441895 
	C374.958923,147.342209 380.082184,147.936798 385.207520,147.955399 
	C411.663055,148.051483 438.119232,147.969971 464.574890,148.044281 
	C467.364197,148.052124 470.151764,148.673904 472.940155,149.010864 
	C474.278900,154.177444 476.478546,159.291138 476.799835,164.520248 
	C477.895508,182.351181 478.329651,200.222778 478.519470,218.546783 
	C473.242737,219.343140 468.463654,219.941360 463.682770,219.955917 
	C434.133240,220.045975 404.583313,220.004623 375.033569,220.006927 
z"/>
<path fill="#EFE45F" opacity="1.000000" stroke="none" 
	d="
M374.932373,220.465332 
	C404.583313,220.004623 434.133240,220.045975 463.682770,219.955917 
	C468.463654,219.941360 473.242737,219.343140 478.440887,219.009949 
	C478.910126,242.695862 478.961151,266.386566 478.525726,290.565552 
	C475.085724,291.369263 472.132721,291.952423 469.178497,291.958832 
	C437.798553,292.026886 406.418396,292.003326 375.038300,292.005005 
	C374.969269,268.311249 374.900238,244.617508 374.932373,220.465332 
z"/>
<path fill="#F2E74B" opacity="1.000000" stroke="none" 
	d="
M478.850647,362.004333 
	C478.923615,374.662170 479.088715,387.321045 478.950897,399.976593 
	C478.933990,401.529236 477.682587,403.716827 476.349426,404.506805 
	C462.467987,412.732513 448.444489,420.718079 434.476746,428.798523 
	C419.836090,437.268280 405.234955,445.806641 390.570557,454.235016 
	C385.672974,457.049896 380.633728,459.618317 374.793365,462.766144 
	C374.793365,429.306000 374.793365,396.116455 375.368103,362.465637 
	C410.245453,362.004333 444.548065,362.004333 478.850647,362.004333 
z"/>
<path fill="#F1E655" opacity="1.000000" stroke="none" 
	d="
M478.935822,361.541931 
	C444.548065,362.004333 410.245453,362.004333 375.474609,362.008270 
	C374.935852,338.979553 374.865295,315.946899 374.916534,292.459625 
	C406.418396,292.003326 437.798553,292.026886 469.178497,291.958832 
	C472.132721,291.952423 475.085724,291.369263 478.451355,291.029327 
	C478.915985,314.363037 478.968475,337.721313 478.935822,361.541931 
z"/>
<path fill="#EBE072" opacity="1.000000" stroke="none" 
	d="
M472.991547,148.612823 
	C470.151764,148.673904 467.364197,148.052124 464.574890,148.044281 
	C438.119232,147.969971 411.663055,148.051483 385.207520,147.955399 
	C380.082184,147.936798 374.958923,147.342209 369.406128,147.009506 
	C367.005798,141.421783 365.375732,135.687012 362.990997,130.285431 
	C358.057983,119.111832 352.961212,107.995537 347.459747,97.093887 
	C344.427399,91.084991 340.437714,85.559196 337.251526,79.275665 
	C339.911530,78.490379 342.197205,78.057297 344.488007,78.028168 
	C373.989441,77.653023 403.491577,77.335480 432.993591,77.003357 
	C436.963318,81.546860 441.209106,85.880898 444.847748,90.675697 
	C453.522949,102.107491 460.541931,114.576157 466.124420,127.769928 
	C468.920227,134.377701 470.766968,141.387039 472.991547,148.612823 
z"/>
<path fill="#F0E559" opacity="1.000000" stroke="none" 
	d="
M354.855743,203.009674 
	C354.903656,206.709732 354.951538,210.409790 354.560608,214.719727 
	C353.749878,217.204086 353.066498,219.076736 353.055298,220.953384 
	C352.964813,236.081329 352.867798,251.211929 353.082947,266.337311 
	C353.144012,270.631134 351.941315,272.114532 347.470459,272.089355 
	C315.385895,271.908691 283.299927,271.974182 251.165222,271.497742 
	C251.085037,250.408722 251.181412,229.781830 250.926819,209.159286 
	C250.868546,204.438095 252.147034,202.865891 257.048553,202.896378 
	C289.649902,203.099213 322.253143,203.006378 354.855743,203.009674 
z"/>
<path fill="#EBE163" opacity="1.000000" stroke="none" 
	d="
M354.935120,202.545990 
	C322.253143,203.006378 289.649902,203.099213 257.048553,202.896378 
	C252.147034,202.865891 250.868546,204.438095 250.926819,209.159286 
	C251.181412,229.781830 251.085037,250.408722 251.103821,271.937622 
	C250.727036,275.885223 250.362457,278.929291 249.997864,281.973328 
	C249.769745,280.042938 249.349731,278.113312 249.342117,276.182037 
	C249.216919,244.406113 249.656403,212.616013 248.791550,180.861160 
	C248.471970,169.127289 245.110031,157.476303 243.636353,145.390991 
	C278.409973,144.996887 312.682892,144.999313 346.955841,145.001724 
	C348.238892,148.801315 349.954895,152.515076 350.728302,156.415710 
	C353.714630,171.477051 355.873993,186.646545 354.935120,202.545990 
z"/>
<path fill="#F0E54E" opacity="1.000000" stroke="none" 
	d="
M249.990158,282.316528 
	C250.362457,278.929291 250.727036,275.885223 251.153015,272.401337 
	C283.299927,271.974182 315.385895,271.908691 347.470459,272.089355 
	C351.941315,272.114532 353.144012,270.631134 353.082947,266.337311 
	C352.867798,251.211929 352.964813,236.081329 353.055298,220.953384 
	C353.066498,219.076736 353.749878,217.204086 354.473145,215.174286 
	C354.873749,252.557922 354.933380,290.096863 354.920532,327.635803 
	C354.920166,328.728271 354.153687,329.820435 352.888733,330.934967 
	C347.081665,330.638550 342.131165,330.061035 337.178772,330.044312 
	C310.262604,329.953339 283.345673,329.934479 256.429901,330.071991 
	C252.396240,330.092560 250.849823,328.959320 250.936737,324.733765 
	C251.172409,313.274231 251.066254,301.806183 250.969543,290.342590 
	C250.951797,288.236481 250.341644,286.135437 250.004944,284.032043 
	C249.997452,283.574585 249.989944,283.117157 249.990158,282.316528 
z"/>
<path fill="#F1E654" opacity="1.000000" stroke="none" 
	d="
M229.044479,191.004761 
	C229.143250,203.079132 229.265167,215.153366 229.331589,227.227905 
	C229.368027,233.850830 229.310760,240.474243 228.707916,247.550995 
	C196.310547,248.002960 164.500687,247.933090 132.691833,248.080795 
	C128.419266,248.100632 126.798561,246.993103 126.908241,242.481094 
	C127.187416,230.996521 126.996887,219.500565 126.995010,207.540588 
	C126.997093,203.741486 127.273140,200.382767 126.935143,197.087036 
	C126.436249,192.222519 128.342407,190.874008 133.125626,190.902405 
	C165.097656,191.092148 197.071335,191.003220 229.044479,191.004761 
z"/>
<path fill="#EEE360" opacity="1.000000" stroke="none" 
	d="
M229.145050,190.544617 
	C197.071335,191.003220 165.097656,191.092148 133.125626,190.902405 
	C128.342407,190.874008 126.436249,192.222519 126.935143,197.087036 
	C127.273140,200.382767 126.997093,203.741486 126.695290,207.538651 
	C125.995110,208.007858 125.595322,208.010437 125.195526,208.013031 
	C125.125267,201.691071 125.468758,195.331406 124.896393,189.055252 
	C123.793114,176.957581 122.376511,164.878128 120.668839,152.850876 
	C119.950867,147.794159 118.163887,142.889206 117.239685,137.240082 
	C119.576965,136.376587 121.537239,136.026642 123.497940,136.024261 
	C152.536194,135.989059 181.574585,136.026993 210.612717,135.956604 
	C213.395462,135.949860 216.176712,135.336288 218.958664,135.004425 
	C220.926895,140.372223 223.387589,145.617126 224.764130,151.132599 
	C227.947708,163.888290 230.085815,176.833557 229.145050,190.544617 
z"/>
<path fill="#ECE16A" opacity="1.000000" stroke="none" 
	d="
M218.998322,134.611221 
	C216.176712,135.336288 213.395462,135.949860 210.612717,135.956604 
	C181.574585,136.026993 152.536194,135.989059 123.497940,136.024261 
	C121.537239,136.026642 119.576965,136.376587 117.287651,136.824463 
	C115.727959,134.602982 114.168427,132.228943 113.320137,129.623322 
	C108.212494,113.934731 100.769188,99.460121 91.212151,86.038742 
	C90.854294,85.536194 90.858170,84.776077 90.884941,83.385597 
	C93.554527,81.756828 96.027374,80.132469 98.511589,80.114899 
	C124.739967,79.929253 150.970428,80.047516 177.199341,79.903481 
	C179.168549,79.892670 181.130219,78.513794 183.095398,77.770874 
	C187.597519,82.377434 192.748566,86.516190 196.473389,91.683098 
	C205.634155,104.390480 213.104797,118.131096 218.863968,132.747635 
	C219.038925,133.191681 218.985138,133.725845 218.998322,134.611221 
z"/>
<path fill="#E8DE75" opacity="1.000000" stroke="none" 
	d="
M183.111694,77.389206 
	C181.130219,78.513794 179.168549,79.892670 177.199341,79.903481 
	C150.970428,80.047516 124.739967,79.929253 98.511589,80.114899 
	C96.027374,80.132469 93.554527,81.756828 90.964096,83.024193 
	C86.929543,78.860413 82.934586,74.367996 79.097847,69.744286 
	C63.764694,51.266079 45.548611,36.307915 24.524549,24.730202 
	C23.377266,24.098404 22.491062,22.992502 21.483328,22.107288 
	C21.631733,21.515490 21.780138,20.923693 21.928541,20.331894 
	C37.277016,19.954880 52.734123,18.247828 67.950287,19.490662 
	C95.641609,21.752455 121.707420,30.139692 145.555923,44.886387 
	C159.145584,53.289547 171.287155,63.370377 182.277481,74.899483 
	C182.763397,75.409210 182.853500,76.296249 183.111694,77.389206 
z"/>
<path fill="#ECE16D" opacity="1.000000" stroke="none" 
	d="
M346.996948,144.662308 
	C312.682892,144.999313 278.409973,144.996887 243.683014,144.997406 
	C243.068893,144.002090 242.908768,143.003830 242.849609,141.256866 
	C242.346039,139.339981 241.741501,138.171814 241.136948,137.003647 
	C235.036621,123.325798 228.936295,109.647942 223.188446,95.311905 
	C225.496872,94.435814 227.452484,94.031410 229.408768,94.028221 
	C255.345779,93.985947 281.283081,94.049744 307.219818,93.953751 
	C311.840759,93.936653 316.459442,93.314972 321.079163,92.972458 
	C324.394043,97.653236 328.337036,102.017189 330.891510,107.081520 
	C336.029236,117.267418 340.410095,127.835075 345.050049,138.974823 
	C345.586945,140.804062 346.177032,141.903656 346.767151,143.003265 
	C346.857452,143.443146 346.947754,143.883011 346.996948,144.662308 
z"/>
<path fill="#E7DC7A" opacity="1.000000" stroke="none" 
	d="
M432.956085,76.639862 
	C403.491577,77.335480 373.989441,77.653023 344.488007,78.028168 
	C342.197205,78.057297 339.911530,78.490379 337.230286,78.906677 
	C332.917908,74.716278 328.993744,70.359367 325.080353,65.992783 
	C310.336182,49.541027 293.692566,35.446331 274.214569,24.835592 
	C273.070160,24.212172 272.241180,23.009712 271.024475,21.846333 
	C287.600586,18.527752 303.932037,18.050257 320.197601,19.577700 
	C330.211273,20.518051 340.227539,22.614107 349.941986,25.284843 
	C365.081268,29.447002 379.484070,35.656082 393.055420,43.660015 
	C406.117462,51.363598 417.552094,61.038860 427.829865,72.151192 
	C429.297363,73.737816 431.211304,74.911537 432.956085,76.639862 
z"/>
<path fill="#EADF74" opacity="1.000000" stroke="none" 
	d="
M321.063446,92.601425 
	C316.459442,93.314972 311.840759,93.936653 307.219818,93.953751 
	C281.283081,94.049744 255.345779,93.985947 229.408768,94.028221 
	C227.452484,94.031410 225.496872,94.435814 223.220810,94.934746 
	C221.318771,93.147392 219.591309,91.173393 218.178665,88.995216 
	C209.312653,75.324623 198.663879,63.160007 187.036728,51.056900 
	C188.972275,49.525414 190.878922,48.128036 192.808990,48.094925 
	C219.483429,47.637287 246.161102,47.367085 272.837982,47.050987 
	C286.592102,54.821331 298.217560,65.204643 308.761292,76.810905 
	C313.171143,81.665138 316.970703,87.073807 321.063446,92.601425 
z"/>
<path fill="#F1E649" opacity="1.000000" stroke="none" 
	d="
M125.118713,208.474731 
	C125.595322,208.010437 125.995110,208.007858 126.694626,208.007217 
	C126.996887,219.500565 127.187416,230.996521 126.908241,242.481094 
	C126.798561,246.993103 128.419266,248.100632 132.691833,248.080795 
	C164.500687,247.933090 196.310547,248.002960 228.593048,248.008484 
	C229.423599,261.086487 231.455261,257.629120 219.587738,264.683563 
	C202.865646,274.623627 185.811356,284.003387 168.949219,293.709778 
	C154.588409,301.976318 140.298370,310.365875 125.041893,319.245270 
	C125.041893,281.966248 125.041893,245.451340 125.118713,208.474731 
z"/>
<path fill="#EEE446" opacity="1.000000" stroke="none" 
	d="
M249.729034,284.342224 
	C250.341644,286.135437 250.951797,288.236481 250.969543,290.342590 
	C251.066254,301.806183 251.172409,313.274231 250.936737,324.733765 
	C250.849823,328.959320 252.396240,330.092560 256.429901,330.071991 
	C283.345673,329.934479 310.262604,329.953339 337.178772,330.044312 
	C342.131165,330.061035 347.081665,330.638550 352.450989,330.961731 
	C346.559662,334.902985 340.341736,338.996155 333.922913,342.745514 
	C318.163818,351.950836 302.328339,361.026001 286.492432,370.099152 
	C274.538116,376.948303 262.535614,383.713318 249.453156,391.141144 
	C249.453156,354.929840 249.453156,319.791138 249.729034,284.342224 
z"/>
<path fill="#E6DC79" opacity="1.000000" stroke="none" 
	d="
M272.624939,46.791382 
	C246.161102,47.367085 219.483429,47.637287 192.808990,48.094925 
	C190.878922,48.128036 188.972275,49.525414 187.009033,50.694515 
	C180.559967,46.306004 174.231155,41.407425 167.730560,36.748505 
	C162.122604,32.729317 156.315887,28.987688 150.604614,25.112204 
	C149.333893,24.249929 148.094849,23.340950 146.055267,21.897079 
	C152.126297,20.897633 157.191101,19.528294 162.300232,19.335978 
	C172.444962,18.954117 182.702240,18.357380 192.756378,19.383814 
	C221.312302,22.299105 248.230240,30.532936 272.624939,46.791382 
z"/>
<path fill="#EBE163" opacity="1.000000" stroke="none" 
	d="
M346.804443,142.665359 
	C346.177032,141.903656 345.586945,140.804062 345.005127,139.351959 
	C345.622894,140.108780 346.232300,141.218109 346.804443,142.665359 
z"/>
<path fill="#EBE163" opacity="1.000000" stroke="none" 
	d="
M241.086243,137.376007 
	C241.741501,138.171814 242.346039,139.339981 242.925690,140.883453 
	C242.279037,140.088623 241.657288,138.918503 241.086243,137.376007 
z"/>
</svg>