<svg xmlns="http://www.w3.org/2000/svg" viewBox="0 0 260 60" role="img" aria-label="Metrix Mídia">
  <g fill="#f5e642">
    <path d="M2 50V12c0-2 1-4 3-4h4c2 0 3 2 3 4v18c0 2-1 3-3 3h-1c-2 0-3 1-3 3v14z"/>
    <path d="M14 50V12c0-2 1-4 3-4h4c2 0 3 2 3 4v18c0 2-1 3-3 3h-1c-2 0-3 1-3 3v14z"/>
    <path d="M26 50V12c0-2 1-4 3-4h4c2 0 3 2 3 4v18c0 2-1 3-3 3h-1c-2 0-3 1-3 3v14z"/>
  </g>
  <text x="40" y="44" font-family="'Inter', Arial, sans-serif" font-weight="800" font-size="44" fill="#ffffff" letter-spacing="-2">etrix</text>
  <text x="155" y="32" font-family="'Inter', Arial, sans-serif" font-weight="400" font-size="10" fill="#8a8a8a">®</text>
  <text x="140" y="56" font-family="'Inter', Arial, sans-serif" font-weight="400" font-size="13" fill="#8a8a8a" letter-spacing="4">MÍDIA</text>
</svg>
